<?xml version="1.0" standalone="no"?>
<!DOCTYPE svg PUBLIC "-//W3C//DTD SVG 20010904//EN"
 "http://www.w3.org/TR/2001/REC-SVG-20010904/DTD/svg10.dtd">
<svg version="1.0" xmlns="http://www.w3.org/2000/svg"
 width="185.000000pt" height="185.000000pt" viewBox="0 0 185.000000 185.000000"
 preserveAspectRatio="xMidYMid meet">
<metadata>
Created by potrace 1.14, written by Peter Selinger 2001-2017
</metadata>
<g transform="translate(0.000000,185.000000) scale(0.100000,-0.100000)"
fill="#000000" stroke="none">
<path d="M885 1710 c-40 -9 -88 -35 -106 -56 -8 -9 -48 -84 -89 -167 -44 -88
-86 -157 -100 -168 -17 -12 -79 -26 -192 -42 -187 -27 -222 -42 -265 -110 -19
-31 -25 -53 -25 -97 0 -76 20 -106 166 -248 64 -62 117 -121 117 -130 3 -29 2
-46 -5 -92 -6 -44 -10 -65 -21 -125 -26 -140 -26 -170 1 -223 36 -71 107 -112
184 -106 20 1 103 38 194 84 126 65 164 81 187 76 16 -3 98 -40 181 -82 148
-73 155 -76 211 -71 61 5 112 34 144 84 38 57 36 97 -11 348 -20 108 -19 109
129 258 111 111 135 140 141 173 13 62 5 115 -24 158 -47 70 -70 77 -372 121
-83 12 -93 23 -176 187 -42 83 -89 163 -103 178 -40 41 -113 63 -166 50z"/>
</g>
</svg>
